<?xml version="1.0"?><svg width="1600" height="1200" xmlns="http://www.w3.org/2000/svg">
 <title>blue rain drop</title>
 <g>
  <title>Layer 1</title>
  <path stroke-width="3" stroke="#0000bf" id="path412" fill="#005fbf" d="m835,748.28186l0,48.946411c-3.250549,9.047607 -0.443237,21.654968 -4.432556,31.147583c-18.321106,160.187927 -154.843018,305.691895 -313.232178,333.724854c-16.104858,6.377808 -35.164764,6.229614 -51.712921,8.899292l-60.577911,0c-16.548126,-2.669678 -35.608032,-2.521484 -51.71286,-8.899292c-170.800232,-29.516113 -309.901958,-194.746948 -317.664795,-366.355652l0,-50.429565c5.412125,-33.520813 12.295837,-68.376526 25.487057,-100.414124c13.356701,-25.808044 27.112316,-51.467712 42.847805,-75.644287l50.235359,-68.22821c112.364655,-134.083221 210.766846,-278.103973 284.790161,-435.028816l20.389648,43.384232c61.169006,149.582878 157.650391,282.034599 262.996887,406.476799c11.376831,16.760437 23.640198,33.075867 36.937744,48.94635c19.798645,30.554321 39.154053,61.405396 54.667908,94.926147c10.638123,28.329468 17.286865,58.883911 20.980652,88.548279z"/>
 </g>
</svg>